<svg width="1715" height="1411" viewBox="0 0 1715 1411" fill="none" xmlns="http://www.w3.org/2000/svg">
<path d="M801.333 25.4671C756.533 29.3338 744.667 31.0671 702.667 39.3338C661.6 47.3338 607.6 65.4671 561.333 86.6671C479.467 124.134 397.067 185.867 338.667 253.334C333.867 258.8 329.733 263.6 329.333 264C326.533 266.4 305.2 294 295.733 307.334C268.4 345.6 242.133 391.734 226 430C223.333 436.534 220.267 443.734 219.2 446C212.133 462.134 198.8 502.534 192.133 528.267C183.2 562.667 178.4 588.667 174.8 622.667C173.867 630.4 172.667 641.867 172 648.134C170.267 663.334 170.267 730.134 172 746.4C172.8 753.467 174 765.334 174.8 772.667C181.733 836.534 200.533 907.067 226.267 965.334C251.867 1023.47 292.8 1088.67 331.333 1132.8C347.067 1150.8 352.8 1156.93 369.6 1173.6C422.8 1226.67 482 1268.67 549.733 1302C562.4 1308.13 576 1314.53 580 1316C584 1317.6 589.467 1319.73 592 1320.93C602.267 1325.33 623.467 1333.07 640 1338.4C680.267 1351.33 724.533 1360.8 771.067 1366.13C795.467 1368.93 868 1370.13 893.067 1368C929.6 1365.07 967.467 1359.2 998.667 1351.73C1030.8 1344.13 1075.33 1329.6 1102.67 1317.6C1106 1316.27 1111.33 1313.87 1114.67 1312.53C1157.33 1294.53 1218.93 1257.2 1259.33 1224.8C1318.4 1177.47 1363.6 1128.13 1404.93 1066C1463.6 977.6 1501.07 874 1511.87 770C1512.67 762.667 1513.73 752.4 1514.27 747.334C1515.87 732.267 1515.47 658.134 1513.6 640.667C1502.93 536.934 1478.93 458.667 1431.33 371.334C1428.53 366.134 1425.2 360.4 1423.73 358.4C1422.4 356.534 1421.33 354.534 1421.33 354.134C1421.33 353.334 1414.53 342.667 1402.13 323.867C1391.33 307.467 1363.87 271.067 1355.87 262.667C1354.8 261.467 1349.6 255.467 1344.13 249.334C1323.07 225.334 1284.93 189.334 1260.67 170.667C1255.6 166.667 1251.07 163.067 1250.67 162.667C1246 157.734 1197.33 125.2 1178 114C1170.67 109.734 1153.6 100.8 1140 94.1338C1115.47 82.0005 1111.73 80.2671 1095.73 73.7338C1066 61.6005 1024 48.1338 998 42.5338C994.4 41.7338 989.2 40.5338 986.667 40.0005C953.467 32.6671 928.933 29.2005 881.733 25.3338C863.067 23.7338 819.733 23.8671 801.333 25.4671ZM803.733 207.067L804 302.667H721.867H639.867L640.8 299.6C642.533 294 657.067 264.134 666.133 247.734C676.4 228.8 695.067 200.4 707.867 184C720 168.4 742.4 146.267 756.667 135.6C768.4 126.8 799.2 110.134 801.867 111.067C802.933 111.467 803.467 141.734 803.733 207.067ZM902 118.667C941.067 138.4 977.6 176.267 1011.33 232C1021.2 248.134 1040.27 286.134 1045.33 299.334L1046.67 302.667H964.667H882.667V206.667C882.667 126 882.933 110.667 884.533 110.667C885.467 110.667 893.467 114.267 902 118.667ZM636.533 146.934C625.733 162 620 170.4 613.333 181.334C606.4 192.4 604.933 195.2 596 211.334C584.267 232.534 570.133 263.067 558.8 291.6L554.4 302.667H477.867C432.4 302.667 401.333 302.134 401.333 301.467C401.333 299.734 437.067 263.734 450 252.534C489.867 217.6 530.267 190.4 575.333 167.6C596.267 157.067 602.8 154 614.8 149.334C618.8 147.734 623.867 145.734 626 144.8C628.267 143.867 631.467 142.4 633.333 141.6C641.067 138.267 641.867 139.6 636.533 146.934ZM1064 146.134C1123.6 170 1181.73 205.334 1230.67 247.6C1246.27 261.067 1285.33 299.734 1285.33 301.6C1285.33 302.134 1250.8 302.667 1208.67 302.667H1132L1130.53 298.934C1129.73 296.934 1128.53 294.267 1127.87 293.067C1127.2 291.734 1126.67 290.134 1126.67 289.334C1126.67 288.667 1125.2 284.934 1123.47 281.067C1121.6 277.067 1119.07 270.934 1117.6 267.334C1112.53 254.534 1096.13 221.2 1086.53 204.267C1076.93 187.467 1056.53 155.867 1049.2 146.534C1042.53 138 1043.73 138 1064 146.134ZM527.467 383.067C527.733 384 526.533 390.667 524.533 398C520.933 411.734 520 415.6 517.333 428C516.4 432 515.2 437.734 514.533 440.667C513.867 443.6 512.667 449.334 512 453.334C511.2 457.334 510 463.6 509.333 467.334C499.733 517.334 493.467 570.267 490.667 626C489.867 641.334 488.933 654.8 488.667 655.6C488.267 656.934 463.2 657.334 369.467 657.334H250.8L251.467 648.267C254.133 612.934 260.933 575.6 273.333 530C275.867 520.267 285.6 492.534 291.867 476.667C303.6 447.2 335.2 386.134 340.533 382.4C341.333 381.867 383.6 381.334 434.4 381.334C508.267 381.334 526.933 381.734 527.467 383.067ZM803.733 519.6L804 657.334H685.867H567.733L568.667 640.267C570.8 594.8 576.8 537.867 582.667 504.667C583.467 500.267 584.667 493.334 585.333 489.334C586 485.334 587.2 478.934 587.867 475.334C588.667 471.6 589.733 466.8 590.133 464.667C593.2 447.734 604.933 400.4 608.133 392.267C608.8 390.534 609.333 388 609.333 386.667C609.333 385.334 610.4 383.467 611.733 382.8C613.2 381.867 646 381.467 708.667 381.734L803.333 382L803.733 519.6ZM1074.4 382.534C1075.47 383.067 1077.47 388 1078.93 393.467C1080.4 398.934 1082.13 405.067 1082.67 407.334C1084.93 415.334 1085.33 416.934 1089.2 433.334C1103.73 494.8 1113.47 562.267 1116.67 623.334C1117.07 631.334 1117.73 642.4 1118.13 647.6L1118.93 657.334H1000.8H882.667V520.267C882.667 444.8 883.067 382.667 883.6 382.267C884.933 380.934 1072.4 381.2 1074.4 382.534ZM1347.07 384.534C1350.93 388.667 1366.4 416.267 1376.8 437.2C1390 464.134 1402.93 496.8 1410.67 522.667C1412.27 528.134 1414.13 534.134 1414.67 536C1420.4 554.667 1427.47 588.267 1430.67 612C1431.47 618.267 1432.8 626.934 1433.47 631.467C1434.13 635.867 1434.67 643.6 1434.67 648.4V657.334H1316.13H1197.6L1196.8 640.267C1192.93 564 1183.47 491.734 1169.33 429.334C1168.8 426.8 1167.6 422 1166.93 418.667C1166.13 415.334 1164 406.534 1162 398.934C1160 391.334 1158.8 384.4 1159.2 383.334C1159.87 381.6 1172.53 381.334 1252 381.334H1344.13L1347.07 384.534ZM487.467 737.067C488.533 737.6 489.333 745.467 489.867 758C491.867 805.467 497.6 858.934 505.467 906C507.067 915.334 508.133 921.2 512.8 944.667C517.867 969.6 518.133 971.067 522.8 988.667C525.067 997.467 527.2 1006.27 527.6 1008.27L528.267 1012H433.467C367.067 1012 338.667 1011.6 338.667 1010.53C338.667 1009.73 336.933 1006.53 334.667 1003.33C332.533 1000.13 330.667 997.2 330.667 996.934C330.667 996.534 328.4 992.4 325.467 987.867C318 975.467 300 938 292.267 918.667C278.933 885.067 267.467 847.2 261.467 816C260.667 812 259.467 805.6 258.8 802C256 787.334 252.933 764.4 251.467 745.734C250.933 740 251.2 737.334 252.4 736.934C255.067 735.867 485.867 736 487.467 737.067ZM803.733 874.4L804 1012L707.067 1011.73L610.133 1011.33L609.2 1007.33C608.667 1005.07 607.6 1001.2 606.8 998.667C600.533 976.4 591.733 939.334 587.867 918.667C577.2 861.867 572.133 818.134 568.533 753.467C567.867 741.6 568.133 738.134 569.6 737.2C570.533 736.534 623.6 736.134 687.333 736.4L803.333 736.667L803.733 874.4ZM1117.07 737.067C1118.4 738 1118.27 744.267 1116.67 769.734C1112.8 830.267 1106.93 876.534 1096.53 928C1093.07 944.934 1083.47 985.867 1081.47 992C1080.4 994.934 1079.47 998.534 1076.67 1008.93L1075.87 1012H979.2H882.667V874.934C882.667 799.467 883.067 737.334 883.6 736.934C884.8 735.6 1115.07 735.867 1117.07 737.067ZM1433.6 736.667C1434.93 737.2 1435.2 740 1434.4 749.734C1433.2 766.667 1430.4 787.734 1426.8 806C1426.13 809.6 1424.93 816 1424.13 820C1422.93 826.134 1417.6 847.6 1413.33 863.334C1403.6 899.467 1375.33 964.4 1354.27 999.334L1347.07 1011.33L1252.8 1011.73C1173.6 1012 1158.67 1011.73 1158.67 1010.13C1158.67 1009.2 1160.13 1002.4 1162 995.2C1181.07 920.8 1191.6 847.734 1196.8 754C1197.2 745.2 1197.87 737.6 1198.27 736.934C1198.93 735.867 1430.67 735.6 1433.6 736.667ZM562 1110.93C569.733 1130 592.933 1178.4 602.267 1194.67C609.2 1206.93 628.533 1236.53 635.6 1245.6C639.733 1251.07 640.933 1253.6 639.733 1254C638.133 1254.67 629.467 1251.6 616.667 1246C614.533 1245.07 610 1243.2 606.667 1241.87C595.733 1237.33 552.933 1215.2 538.667 1206.67C508.933 1188.93 477.6 1165.87 450.933 1142.4C435.733 1129.07 401.333 1094.8 401.333 1093.07C401.333 1092.53 435.733 1092 477.867 1092H554.267L562 1110.93ZM803.733 1187.6C803.333 1282.53 803.333 1283.33 800.667 1282.93C795.6 1282.13 776.667 1272.13 764 1263.73C748.8 1253.6 723.6 1229.73 709.067 1211.47C685.867 1182.53 662.933 1144.4 646.667 1108.13C643.067 1099.87 640 1092.8 640 1092.53C640 1092.27 676.933 1092 722 1092H804L803.733 1187.6ZM1044.4 1097.6C1039.87 1109.07 1018.53 1150.4 1009.73 1164.93C980.933 1212.53 948.4 1248.13 914.667 1268.8C905.067 1274.67 889.6 1282.27 885.733 1282.93C883.467 1283.33 883.333 1279.73 882.933 1187.6L882.667 1092H964.667H1046.67L1044.4 1097.6ZM1282.8 1095.6C1276 1105.2 1234.8 1143.87 1212 1162.13C1176 1191.2 1126.67 1221.07 1085.33 1239.2C1080.53 1241.33 1073.73 1244.4 1070 1246C1059.6 1250.67 1046.53 1254.93 1045.73 1254.13C1045.2 1253.73 1046.67 1251.07 1048.93 1248.27C1054.8 1240.93 1070.67 1216.93 1079.73 1201.87C1095.73 1174.8 1111.33 1143.2 1124.27 1110.67C1127.87 1101.47 1131.2 1093.6 1131.47 1093.07C1131.87 1092.4 1166.67 1092 1208.8 1092H1285.47L1282.8 1095.6Z" fill="white"/>
</svg>
